<svg xmlns="http://www.w3.org/2000/svg"  viewBox="0 0 24 24" width="96px" height="96px" baseProfile="basic"><path fill="#070707" d="M22.567,4.538c-0.292-0.306-0.702-0.481-1.125-0.481H16.9c-0.46-2.286-2.481-4.014-4.9-4.014 S7.559,1.77,7.1,4.056H2.557c-0.422,0-0.832,0.176-1.125,0.481C1.139,4.844,0.982,5.264,1.001,5.691L1.71,20.945 c0.081,1.737,1.497,3.098,3.225,3.098h14.13c1.728,0,3.145-1.36,3.225-3.097L22.999,5.69C23.018,5.264,22.861,4.844,22.567,4.538z M12,2.043c1.307,0,2.41,0.845,2.82,2.014H9.18C9.59,2.888,10.693,2.043,12,2.043z M20.292,20.853 c-0.031,0.667-0.57,1.189-1.227,1.189H4.935c-0.657,0-1.196-0.522-1.227-1.19L3.021,6.056h17.959L20.292,20.853z"/><path d="M16.06,16.623c0,1.9-1.8,3.38-4.09,3.38c-2.491,0-4.25-1.77-4.25-1.77l1.1-1.75c0,0,1.99,1.49,3.15,1.49 c1.12,0,2.06-0.62,2.06-1.35c0-0.92-0.6-1.29-2.41-1.95c-1.55-0.57-3.46-1.27-3.46-3.43c0-1.88,1.67-3.3,3.88-3.3 c2.485,0,3.797,1.388,3.8,1.39l-1.04,1.72c-0.001,0-1.519-1.09-2.76-1.09c-1.08,0-1.86,0.54-1.86,1.28 c0,0.64,0.56,0.96,2.13,1.53C13.89,13.342,16.06,14.132,16.06,16.623z"/></svg>